<mxfile host="Electron" agent="Mozilla/5.0 (Windows NT 10.0; Win64; x64) AppleWebKit/537.36 (KHTML, like Gecko) draw.io/22.0.3 Chrome/114.0.5735.289 Electron/25.8.4 Safari/537.36" modified="2024-10-14T19:29:49.758Z" version="22.0.3" etag="LPEUeRsD2eDnn4hIsKHq" type="device">
  <diagram name="第 1 页" id="_i7Nsi_loY6YteiHFJjn">
    <mxGraphModel dx="2554" dy="1023" grid="1" gridSize="10" guides="1" tooltips="1" connect="1" arrows="1" fold="1" page="1" pageScale="1" pageWidth="827" pageHeight="1169" math="0" shadow="0">
      <root>
        <mxCell id="0" />
        <mxCell id="1" parent="0" />
        <mxCell id="TlzOl084ez7NkVIhYVSb-4" style="edgeStyle=orthogonalEdgeStyle;rounded=0;orthogonalLoop=1;jettySize=auto;html=1;exitX=0.5;exitY=1;exitDx=0;exitDy=0;endArrow=none;endFill=0;" parent="1" source="TlzOl084ez7NkVIhYVSb-1" target="TlzOl084ez7NkVIhYVSb-2" edge="1">
          <mxGeometry relative="1" as="geometry" />
        </mxCell>
        <mxCell id="TlzOl084ez7NkVIhYVSb-1" value="" style="ellipse;whiteSpace=wrap;html=1;aspect=fixed;" parent="1" vertex="1">
          <mxGeometry x="360" y="70" width="80" height="80" as="geometry" />
        </mxCell>
        <mxCell id="TlzOl084ez7NkVIhYVSb-11" style="rounded=0;orthogonalLoop=1;jettySize=auto;html=1;exitX=0.5;exitY=1;exitDx=0;exitDy=0;entryX=0.5;entryY=0;entryDx=0;entryDy=0;endArrow=none;endFill=0;" parent="1" source="TlzOl084ez7NkVIhYVSb-2" target="TlzOl084ez7NkVIhYVSb-7" edge="1">
          <mxGeometry relative="1" as="geometry" />
        </mxCell>
        <mxCell id="TlzOl084ez7NkVIhYVSb-12" style="edgeStyle=orthogonalEdgeStyle;rounded=0;orthogonalLoop=1;jettySize=auto;html=1;exitX=0.5;exitY=1;exitDx=0;exitDy=0;entryX=0.5;entryY=0;entryDx=0;entryDy=0;endArrow=none;endFill=0;" parent="1" source="TlzOl084ez7NkVIhYVSb-2" target="TlzOl084ez7NkVIhYVSb-5" edge="1">
          <mxGeometry relative="1" as="geometry" />
        </mxCell>
        <mxCell id="TlzOl084ez7NkVIhYVSb-14" style="rounded=0;orthogonalLoop=1;jettySize=auto;html=1;exitX=0.5;exitY=1;exitDx=0;exitDy=0;entryX=0.5;entryY=0;entryDx=0;entryDy=0;endArrow=none;endFill=0;" parent="1" source="TlzOl084ez7NkVIhYVSb-2" target="TlzOl084ez7NkVIhYVSb-9" edge="1">
          <mxGeometry relative="1" as="geometry" />
        </mxCell>
        <mxCell id="TlzOl084ez7NkVIhYVSb-2" value="«compoent»&lt;br&gt;&lt;b&gt;登入&lt;/b&gt;" style="html=1;dropTarget=0;whiteSpace=wrap;" parent="1" vertex="1">
          <mxGeometry x="310" y="210" width="180" height="90" as="geometry" />
        </mxCell>
        <mxCell id="TlzOl084ez7NkVIhYVSb-3" value="" style="shape=module;jettyWidth=8;jettyHeight=4;" parent="TlzOl084ez7NkVIhYVSb-2" vertex="1">
          <mxGeometry x="1" width="20" height="20" relative="1" as="geometry">
            <mxPoint x="-27" y="7" as="offset" />
          </mxGeometry>
        </mxCell>
        <mxCell id="TlzOl084ez7NkVIhYVSb-5" value="«compoent»&lt;br&gt;&lt;b&gt;PO文管理&lt;/b&gt;" style="html=1;dropTarget=0;whiteSpace=wrap;" parent="1" vertex="1">
          <mxGeometry x="310" y="440" width="180" height="90" as="geometry" />
        </mxCell>
        <mxCell id="TlzOl084ez7NkVIhYVSb-6" value="" style="shape=module;jettyWidth=8;jettyHeight=4;" parent="TlzOl084ez7NkVIhYVSb-5" vertex="1">
          <mxGeometry x="1" width="20" height="20" relative="1" as="geometry">
            <mxPoint x="-27" y="7" as="offset" />
          </mxGeometry>
        </mxCell>
        <mxCell id="TlzOl084ez7NkVIhYVSb-22" style="rounded=0;orthogonalLoop=1;jettySize=auto;html=1;exitX=0.5;exitY=1;exitDx=0;exitDy=0;entryX=0.5;entryY=0;entryDx=0;entryDy=0;endArrow=none;endFill=0;" parent="1" source="TlzOl084ez7NkVIhYVSb-7" target="TlzOl084ez7NkVIhYVSb-18" edge="1">
          <mxGeometry relative="1" as="geometry" />
        </mxCell>
        <mxCell id="TlzOl084ez7NkVIhYVSb-23" style="rounded=0;orthogonalLoop=1;jettySize=auto;html=1;exitX=0.5;exitY=1;exitDx=0;exitDy=0;entryX=0.5;entryY=0;entryDx=0;entryDy=0;endArrow=none;endFill=0;" parent="1" source="TlzOl084ez7NkVIhYVSb-7" target="TlzOl084ez7NkVIhYVSb-20" edge="1">
          <mxGeometry relative="1" as="geometry" />
        </mxCell>
        <mxCell id="TlzOl084ez7NkVIhYVSb-7" value="«compoent»&lt;br&gt;&lt;b&gt;使用者管理&lt;/b&gt;" style="html=1;dropTarget=0;whiteSpace=wrap;" parent="1" vertex="1">
          <mxGeometry x="-170" y="450" width="180" height="90" as="geometry" />
        </mxCell>
        <mxCell id="TlzOl084ez7NkVIhYVSb-8" value="" style="shape=module;jettyWidth=8;jettyHeight=4;" parent="TlzOl084ez7NkVIhYVSb-7" vertex="1">
          <mxGeometry x="1" width="20" height="20" relative="1" as="geometry">
            <mxPoint x="-27" y="7" as="offset" />
          </mxGeometry>
        </mxCell>
        <mxCell id="TlzOl084ez7NkVIhYVSb-28" style="rounded=0;orthogonalLoop=1;jettySize=auto;html=1;exitX=0.5;exitY=1;exitDx=0;exitDy=0;entryX=0.5;entryY=0;entryDx=0;entryDy=0;endArrow=none;endFill=0;" parent="1" source="TlzOl084ez7NkVIhYVSb-9" target="TlzOl084ez7NkVIhYVSb-24" edge="1">
          <mxGeometry relative="1" as="geometry" />
        </mxCell>
        <mxCell id="TlzOl084ez7NkVIhYVSb-29" style="rounded=0;orthogonalLoop=1;jettySize=auto;html=1;exitX=0.5;exitY=1;exitDx=0;exitDy=0;entryX=0.5;entryY=0;entryDx=0;entryDy=0;endArrow=none;endFill=0;" parent="1" source="TlzOl084ez7NkVIhYVSb-9" target="TlzOl084ez7NkVIhYVSb-26" edge="1">
          <mxGeometry relative="1" as="geometry" />
        </mxCell>
        <mxCell id="TlzOl084ez7NkVIhYVSb-9" value="«compoent»&lt;br&gt;&lt;b&gt;房屋管理&lt;/b&gt;" style="html=1;dropTarget=0;whiteSpace=wrap;" parent="1" vertex="1">
          <mxGeometry x="790" y="440" width="180" height="90" as="geometry" />
        </mxCell>
        <mxCell id="TlzOl084ez7NkVIhYVSb-10" value="" style="shape=module;jettyWidth=8;jettyHeight=4;" parent="TlzOl084ez7NkVIhYVSb-9" vertex="1">
          <mxGeometry x="1" width="20" height="20" relative="1" as="geometry">
            <mxPoint x="-27" y="7" as="offset" />
          </mxGeometry>
        </mxCell>
        <mxCell id="TlzOl084ez7NkVIhYVSb-15" style="rounded=0;orthogonalLoop=1;jettySize=auto;html=1;exitX=0.5;exitY=1;exitDx=0;exitDy=0;entryX=0.5;entryY=0;entryDx=0;entryDy=0;endArrow=none;endFill=0;" parent="1" source="TlzOl084ez7NkVIhYVSb-5" target="TlzOl084ez7NkVIhYVSb-16" edge="1">
          <mxGeometry relative="1" as="geometry">
            <mxPoint x="400" y="530" as="sourcePoint" />
          </mxGeometry>
        </mxCell>
        <mxCell id="TlzOl084ez7NkVIhYVSb-16" value="«compoent»&lt;div&gt;審核PO文管理&lt;/div&gt;" style="html=1;dropTarget=0;whiteSpace=wrap;" parent="1" vertex="1">
          <mxGeometry x="310" y="670" width="180" height="90" as="geometry" />
        </mxCell>
        <mxCell id="TlzOl084ez7NkVIhYVSb-17" value="" style="shape=module;jettyWidth=8;jettyHeight=4;" parent="TlzOl084ez7NkVIhYVSb-16" vertex="1">
          <mxGeometry x="1" width="20" height="20" relative="1" as="geometry">
            <mxPoint x="-27" y="7" as="offset" />
          </mxGeometry>
        </mxCell>
        <mxCell id="TlzOl084ez7NkVIhYVSb-18" value="«compoent»&lt;br&gt;&lt;b&gt;個人檔案管理&lt;/b&gt;" style="html=1;dropTarget=0;whiteSpace=wrap;" parent="1" vertex="1">
          <mxGeometry x="-350" y="670" width="180" height="90" as="geometry" />
        </mxCell>
        <mxCell id="TlzOl084ez7NkVIhYVSb-19" value="" style="shape=module;jettyWidth=8;jettyHeight=4;" parent="TlzOl084ez7NkVIhYVSb-18" vertex="1">
          <mxGeometry x="1" width="20" height="20" relative="1" as="geometry">
            <mxPoint x="-27" y="7" as="offset" />
          </mxGeometry>
        </mxCell>
        <mxCell id="TlzOl084ez7NkVIhYVSb-20" value="«compoent»&lt;br&gt;&lt;b&gt;管理者管理&lt;/b&gt;" style="html=1;dropTarget=0;whiteSpace=wrap;" parent="1" vertex="1">
          <mxGeometry x="10" y="670" width="180" height="90" as="geometry" />
        </mxCell>
        <mxCell id="TlzOl084ez7NkVIhYVSb-21" value="" style="shape=module;jettyWidth=8;jettyHeight=4;" parent="TlzOl084ez7NkVIhYVSb-20" vertex="1">
          <mxGeometry x="1" width="20" height="20" relative="1" as="geometry">
            <mxPoint x="-27" y="7" as="offset" />
          </mxGeometry>
        </mxCell>
        <mxCell id="TlzOl084ez7NkVIhYVSb-24" value="«compoent»&lt;br&gt;&lt;b&gt;房屋收藏管理&lt;/b&gt;" style="html=1;dropTarget=0;whiteSpace=wrap;" parent="1" vertex="1">
          <mxGeometry x="610" y="670" width="180" height="90" as="geometry" />
        </mxCell>
        <mxCell id="TlzOl084ez7NkVIhYVSb-25" value="" style="shape=module;jettyWidth=8;jettyHeight=4;" parent="TlzOl084ez7NkVIhYVSb-24" vertex="1">
          <mxGeometry x="1" width="20" height="20" relative="1" as="geometry">
            <mxPoint x="-27" y="7" as="offset" />
          </mxGeometry>
        </mxCell>
        <mxCell id="TlzOl084ez7NkVIhYVSb-26" value="«compoent»&lt;br&gt;&lt;b&gt;房屋查詢&lt;/b&gt;" style="html=1;dropTarget=0;whiteSpace=wrap;" parent="1" vertex="1">
          <mxGeometry x="970" y="670" width="180" height="90" as="geometry" />
        </mxCell>
        <mxCell id="TlzOl084ez7NkVIhYVSb-27" value="" style="shape=module;jettyWidth=8;jettyHeight=4;" parent="TlzOl084ez7NkVIhYVSb-26" vertex="1">
          <mxGeometry x="1" width="20" height="20" relative="1" as="geometry">
            <mxPoint x="-27" y="7" as="offset" />
          </mxGeometry>
        </mxCell>
        <mxCell id="TlzOl084ez7NkVIhYVSb-30" value="主畫面" style="text;html=1;align=center;verticalAlign=middle;resizable=0;points=[];autosize=1;strokeColor=none;fillColor=none;" parent="1" vertex="1">
          <mxGeometry x="370" y="40" width="60" height="30" as="geometry" />
        </mxCell>
        <mxCell id="TlzOl084ez7NkVIhYVSb-31" value="&lt;font style=&quot;font-size: 40px;&quot;&gt;&lt;b&gt;元件圖&lt;/b&gt;&lt;/font&gt;" style="text;html=1;align=center;verticalAlign=middle;resizable=0;points=[];autosize=1;strokeColor=none;fillColor=none;" parent="1" vertex="1">
          <mxGeometry x="330" y="820" width="140" height="60" as="geometry" />
        </mxCell>
      </root>
    </mxGraphModel>
  </diagram>
</mxfile>
